<?xml version="1.0" encoding="utf-8"?>
<!-- Generator: Adobe Illustrator 23.0.3, SVG Export Plug-In . SVG Version: 6.00 Build 0)  -->
<svg version="1.1" id="Layer_1" xmlns="http://www.w3.org/2000/svg" xmlns:xlink="http://www.w3.org/1999/xlink" x="0px" y="0px"
	 viewBox="0 0 78.6 78.6" enable-background="new 0 0 78.6 78.6" xml:space="preserve">
<g>
	<path fill-rule="evenodd" clip-rule="evenodd" fill="#FFF100" d="M26.6,36.8h26.5l-1.1-22c0-3.1-2.4-5.5-5.4-5.5H33.2
		c-3,0-5.4,2.4-5.4,5.4L26.6,36.8z M39.7,46.6h9.8h3.9c1,0,1.9-0.5,2.4-1.2l0-1.7H23.9v1.7c0.5,0.7,1.4,1.2,2.4,1.2H39.7z M31,50.6
		h17.6v-2.2H31V50.6z M52.2,66.7c-1,0-1.9,0.8-1.9,1.9c0,1,0.8,1.9,1.9,1.9c1,0,1.9-0.8,1.9-1.9C54.1,67.6,53.3,66.7,52.2,66.7
		L52.2,66.7z M37.9,68.6c0,1,0.8,1.9,1.9,1.9c1,0,1.9-0.8,1.9-1.9c0-1-0.8-1.9-1.9-1.9C38.8,66.7,37.9,67.5,37.9,68.6L37.9,68.6z
		 M29.6,68.6c0-1-0.8-1.9-1.9-1.9c-1,0-1.9,0.8-1.9,1.9c0,1,0.8,1.9,1.9,1.9C28.7,70.5,29.6,69.6,29.6,68.6L29.6,68.6z M54.6,28.1
		l0.4,8.7h3.7v-4C58.6,30.4,56.8,28.4,54.6,28.1L54.6,28.1z M24.8,36.8l0.4-8.7c-2.3,0.3-4.1,2.3-4.1,4.7v4H24.8z"/>
	<path fill-rule="evenodd" clip-rule="evenodd" fill="#018266" d="M68.7,71.7h-4V43.1h-51v28.6h-4v-31h-5v-4.5h69v4.5h-5.1v2.4V71.7
		z M45.8,11.5c0-0.5,0.4-0.9,0.9-0.9c0.5,0,0.9,0.4,0.9,0.9v20.1c0,0.5-0.4,0.9-0.9,0.9c-0.5,0-0.9-0.4-0.9-0.9V11.5z M38.4,11.5
		c0-0.5,0.4-0.9,0.9-0.9c0.5,0,0.9,0.4,0.9,0.9v20.1c0,0.5-0.4,0.9-0.9,0.9c-0.5,0-0.9-0.4-0.9-0.9V11.5z M31,11.5
		c0-0.5,0.4-0.9,0.9-0.9c0.5,0,0.9,0.4,0.9,0.9v20.1c0,0.5-0.4,0.9-0.9,0.9c-0.5,0-0.9-0.4-0.9-0.9V11.5z M18.7,34.4v-2.3
		c0-3.4,2.7-6.2,6-6.5L25.4,14c0-3.9,3.3-7.2,7.2-7.2H46c4,0,7.2,3.2,7.2,7.2l0.7,11.6c3.3,0.3,5.9,3.1,5.9,6.5v2.3H58v-2.3
		c0-2.4-1.7-4.3-4-4.7l0.4,7h-1.8l-1.2-20.3c0-3.1-2.4-5.5-5.4-5.5H32.6c-3,0-5.4,2.4-5.4,5.4L26,34.4h-1.8l0.4-7
		c-2.3,0.3-4.1,2.3-4.1,4.7v2.3H18.7z M52.9,47.9h-3V51c0,0.5-0.4,0.9-0.9,0.9h-8.8v7.7h4.5c1.1,0,2.4,0.6,3.1,1.5l4.3,3.4
		c1.8,0.2,3.3,1.8,3.3,3.7c0,2-1.6,3.7-3.7,3.7c-2,0-3.7-1.6-3.7-3.7c0-1.3,0.7-2.5,1.8-3.1l-3.2-2.5c-0.1,0-0.1-0.1-0.2-0.2
		c-0.3-0.4-1.2-0.8-1.7-0.8h-4.5v3.1c1.6,0.4,2.8,1.8,2.8,3.6c0,2-1.7,3.7-3.7,3.7c-2,0-3.7-1.6-3.7-3.7c0-1.7,1.2-3.2,2.8-3.6v-3.1
		h-4.2c-0.6,0-1.4,0.4-1.7,0.8c0,0.1-0.1,0.1-0.2,0.2l-3.2,2.5c1.1,0.6,1.8,1.8,1.8,3.1c0,2-1.6,3.7-3.7,3.7c-2,0-3.7-1.6-3.7-3.7
		c0-1.9,1.4-3.5,3.3-3.7l4.3-3.4c0.7-0.8,2-1.5,3.1-1.5h4.2v-7.7h-8.8c-0.5,0-0.9-0.4-0.9-0.9v-3.1h-2.9c-2,0-3.7-1.3-4.4-3h2
		c0.5,0.7,1.4,1.2,2.4,1.2h13.4H49l0,0h3.9c1,0,1.9-0.5,2.4-1.2h2C56.6,46.6,54.9,47.9,52.9,47.9L52.9,47.9z M51.7,66.2
		c-1,0-1.9,0.8-1.9,1.9c0,1,0.8,1.9,1.9,1.9c1,0,1.9-0.8,1.9-1.9C53.6,67,52.7,66.2,51.7,66.2L51.7,66.2z M27.2,66.2
		c-1,0-1.9,0.8-1.9,1.9c0,1,0.8,1.9,1.9,1.9c1,0,1.9-0.8,1.9-1.9C29,67,28.2,66.2,27.2,66.2L27.2,66.2z M39.3,66.1
		c-1,0-1.9,0.8-1.9,1.9c0,1,0.8,1.9,1.9,1.9c1,0,1.9-0.8,1.9-1.9C41.1,67,40.3,66.1,39.3,66.1L39.3,66.1z M30.4,50.1h17.6v-2.2H30.4
		V50.1z"/>
</g>
</svg>
