<?xml version="1.0" encoding="utf-8"?>
<!-- Generator: Adobe Illustrator 23.0.3, SVG Export Plug-In . SVG Version: 6.00 Build 0)  -->
<svg version="1.1" id="Layer_1" xmlns="http://www.w3.org/2000/svg" xmlns:xlink="http://www.w3.org/1999/xlink" x="0px" y="0px"
	 viewBox="0 0 78.6 78.6" enable-background="new 0 0 78.6 78.6" xml:space="preserve">
<g>
	<g>
		<path fill-rule="evenodd" clip-rule="evenodd" fill="#FFF100" d="M16,52h14.6c0.4,0,0.7,0.3,0.7,0.7v16.3c0,0.4-0.3,0.7-0.7,0.7
			H16c-0.4,0-0.7-0.3-0.7-0.7V52.7C15.3,52.3,15.7,52,16,52L16,52z"/>
		<path fill-rule="evenodd" clip-rule="evenodd" fill="#FFF100" d="M16,32.2h14.6c0.4,0,0.7,0.3,0.7,0.7v16.3c0,0.4-0.3,0.7-0.7,0.7
			H16c-0.4,0-0.7-0.3-0.7-0.7V32.9C15.3,32.5,15.7,32.2,16,32.2L16,32.2z"/>
		<path fill-rule="evenodd" clip-rule="evenodd" fill="#FFF100" d="M34,52h14.6c0.4,0,0.7,0.3,0.7,0.7v16.3c0,0.4-0.3,0.7-0.7,0.7
			H34c-0.4,0-0.7-0.3-0.7-0.7V52.7C33.3,52.3,33.6,52,34,52L34,52z"/>
		<path fill-rule="evenodd" clip-rule="evenodd" fill="#FFF100" d="M34,32.2h14.6c0.4,0,0.7,0.3,0.7,0.7v16.3c0,0.4-0.3,0.7-0.7,0.7
			H34c-0.4,0-0.7-0.3-0.7-0.7V32.9C33.3,32.5,33.6,32.2,34,32.2L34,32.2z"/>
		<path fill-rule="evenodd" clip-rule="evenodd" fill="#FFF100" d="M52.2,52.7h13.9c0.4,0,0.7,0.3,0.7,0.7v15.6
			c0,0.4-0.3,0.7-0.7,0.7H52.2c-0.4,0-0.7-0.3-0.7-0.7V53.4C51.6,53,51.9,52.7,52.2,52.7L52.2,52.7z"/>
		<path fill-rule="evenodd" clip-rule="evenodd" fill="#FFF100" d="M52.2,32.2h13.9c0.4,0,0.7,0.3,0.7,0.7v15.6
			c0,0.4-0.3,0.7-0.7,0.7H52.2c-0.4,0-0.7-0.3-0.7-0.7V32.9C51.6,32.5,51.9,32.2,52.2,32.2L52.2,32.2z"/>
	</g>
	<path fill-rule="evenodd" clip-rule="evenodd" fill="#018266" d="M68,8.2c-0.1-0.5-0.5-0.9-1-0.9H10.7c-0.5,0-0.8,0.4-0.8,0.9
		L10.5,27c0,0.1,0.1,0.2,0.1,0.3v41.5c0,1.4,1.1,2.5,2.5,2.5h53.1c1.4,0,2.5-1.1,2.5-2.5V27L68,8.2z M30,67.6c0,0.4-0.3,0.7-0.7,0.7
		H14.7c-0.4,0-0.7-0.3-0.7-0.7V51.4c0-0.4,0.3-0.7,0.7-0.7h14.6c0.4,0,0.7,0.3,0.7,0.7V67.6z M30,47.9c0,0.4-0.3,0.7-0.7,0.7H14.7
		c-0.4,0-0.7-0.3-0.7-0.7V31.6c0-0.4,0.3-0.7,0.7-0.7h14.6c0.4,0,0.7,0.3,0.7,0.7V47.9z M48,67.6c0,0.4-0.3,0.7-0.7,0.7H32.7
		c-0.4,0-0.7-0.3-0.7-0.7V51.4c0-0.4,0.3-0.7,0.7-0.7h14.6c0.4,0,0.7,0.3,0.7,0.7V67.6z M48,47.9c0,0.4-0.3,0.7-0.7,0.7H32.7
		c-0.4,0-0.7-0.3-0.7-0.7V31.6c0-0.4,0.3-0.7,0.7-0.7h14.6c0.4,0,0.7,0.3,0.7,0.7V47.9z M65.5,67.7c0,0.4-0.3,0.7-0.7,0.7H50.9
		c-0.4,0-0.7-0.3-0.7-0.7V52.1c0-0.4,0.3-0.7,0.7-0.7h13.9c0.4,0,0.7,0.3,0.7,0.7V67.7z M65.5,47.2c0,0.4-0.3,0.7-0.7,0.7H50.9
		c-0.4,0-0.7-0.3-0.7-0.7V31.6c0-0.4,0.3-0.7,0.7-0.7h13.9c0.4,0,0.7,0.3,0.7,0.7V47.2z"/>
	<path fill-rule="evenodd" clip-rule="evenodd" fill="#FFFFFF" d="M16,26h46.9c0.4,0,0.7-0.3,0.6-0.7l-0.5-14c0-0.4-0.3-0.7-0.7-0.7
		H15.4c-0.4,0-0.7,0.3-0.6,0.7l0.5,14C15.3,25.7,15.6,26,16,26L16,26z"/>
	<polygon fill="#018266" points="39.4,43.1 39.4,40.3 36.7,40.3 36.7,39.2 39.4,39.2 39.4,36.5 40.6,36.5 40.6,39.2 43.3,39.2 
		43.3,40.3 40.6,40.3 40.6,43.1 39.4,43.1 	"/>
	<path fill="#018266" d="M61.2,58.9h-6.6v-1.1h6.6V58.9L61.2,58.9z M61.2,61.9h-6.6v-1.1h6.6V61.9L61.2,61.9z"/>
	<polygon fill="#018266" points="24,62.2 22,60.3 20.1,62.2 19.3,61.4 21.2,59.5 19.3,57.6 20.1,56.8 22,58.7 24,56.8 24.8,57.6 
		22.8,59.5 24.8,61.4 24,62.2 	"/>
	<polygon fill="#018266" points="25.3,40.3 18.7,40.3 18.7,39.2 25.3,39.2 25.3,40.3 	"/>
	<polygon fill="#018266" points="43.3,60.1 36.7,60.1 36.7,58.9 43.3,58.9 43.3,60.1 	"/>
	<polygon fill="#018266" points="39.1,58.3 39.1,56.5 40.9,56.5 40.9,58.3 39.1,58.3 	"/>
	<polygon fill="#018266" points="39.1,62.5 39.1,60.7 40.9,60.7 40.9,62.5 39.1,62.5 	"/>
	<path fill="#018266" d="M60.8,38.1l-1.6,0.3c-0.1-0.3-0.2-0.6-0.4-0.7c-0.2-0.2-0.4-0.2-0.8-0.2c-0.4,0-0.7,0.1-1,0.4
		c-0.2,0.3-0.4,0.8-0.4,1.4c0,0.7,0.1,1.3,0.4,1.6c0.3,0.3,0.6,0.5,1,0.5c0.3,0,0.6-0.1,0.8-0.3c0.2-0.2,0.3-0.5,0.4-0.9l1.6,0.3
		c-0.2,0.8-0.5,1.3-1,1.7c-0.5,0.4-1.1,0.6-1.9,0.6c-0.9,0-1.6-0.3-2.2-0.9c-0.5-0.6-0.8-1.4-0.8-2.4c0-1,0.3-1.8,0.8-2.4
		c0.5-0.6,1.3-0.9,2.2-0.9c0.8,0,1.4,0.2,1.8,0.5C60.3,36.9,60.6,37.4,60.8,38.1L60.8,38.1z"/>
</g>
</svg>
