<?xml version="1.0" encoding="utf-8"?>
<!-- Generator: Adobe Illustrator 23.0.3, SVG Export Plug-In . SVG Version: 6.00 Build 0)  -->
<svg version="1.1" id="Layer_1" xmlns="http://www.w3.org/2000/svg" xmlns:xlink="http://www.w3.org/1999/xlink" x="0px" y="0px"
	 viewBox="0 0 78.6 78.6" enable-background="new 0 0 78.6 78.6" xml:space="preserve">
<g>
	<path fill-rule="evenodd" clip-rule="evenodd" fill="#FFF100" d="M24.7,17.5v18.2h10.3V17.5H24.7z M6.3,17.5v18.2h10.3V17.5H6.3z
		 M43.7,22l9.2,15.7l8.9-5.2l-9.2-15.7L43.7,22z"/>
	<path fill-rule="evenodd" clip-rule="evenodd" fill="#018266" d="M10.1,53.9c-1.2,0-2.2,1-2.2,2.2s1,2.2,2.2,2.2
		c1.2,0,2.2-1,2.2-2.2S11.3,53.9,10.1,53.9L10.1,53.9z M64,51.1c-1,0.6-1.4,2-0.8,3c0.6,1,2,1.4,3,0.8c1-0.6,1.4-2,0.8-3
		C66.4,50.9,65,50.5,64,51.1L64,51.1z M42.4,24.5l8.9-5.2l9.2,15.7l-8.9,5.2L42.4,24.5z M77,56.6L51.7,13.5L37.1,22l25.3,43.1
		L77,56.6z M54.6,42.3l6.3-3.7l0.9,1.6l-6.3,3.7L54.6,42.3z M60.9,55.5c-1.4-2.3-0.6-5.3,1.7-6.7c2.3-1.4,5.3-0.6,6.7,1.7
		c1.4,2.3,0.6,5.3-1.7,6.7C65.3,58.6,62.2,57.8,60.9,55.5L60.9,55.5z M53.7,28.6l-4.3,2.5l-0.9-1.6l4.3-2.5L53.7,28.6z M51.6,25.1
		l-4.3,2.5L46.4,26l4.3-2.5L51.6,25.1z M66.9,56c-1.6,1-3.8,0.4-4.7-1.2c-1-1.6-0.4-3.8,1.2-4.7c1.6-1,3.8-0.4,4.7,1.2
		C69.1,52.9,68.5,55,66.9,56L66.9,56z M28.6,53.9c-1.2,0-2.2,1-2.2,2.2s1,2.2,2.2,2.2c1.2,0,2.2-1,2.2-2.2S29.8,53.9,28.6,53.9
		L28.6,53.9z M23.4,19.9h10.3v18.2H23.4V19.9z M37,65.1v-50H20.1v50H37z M24.9,41.5h7.3v1.8h-7.3V41.5z M23.7,56.1
		c0-2.7,2.2-4.9,4.9-4.9c2.7,0,4.9,2.2,4.9,4.9c0,2.7-2.2,4.9-4.9,4.9C25.9,61,23.7,58.8,23.7,56.1L23.7,56.1z M31.1,29.2h-4.9v-1.8
		h4.9V29.2z M31.1,25.1h-4.9v-1.8h4.9V25.1z M28.6,59.5c-1.9,0-3.5-1.6-3.5-3.5c0-1.9,1.6-3.5,3.5-3.5c1.9,0,3.5,1.6,3.5,3.5
		C32,58,30.5,59.5,28.6,59.5L28.6,59.5z M4.9,19.9h10.3v18.2H4.9V19.9z M18.5,65.1v-50H1.6v50H18.5z M6.4,41.5h7.3v1.8H6.4V41.5z
		 M5.2,56.1c0-2.7,2.2-4.9,4.9-4.9c2.7,0,4.9,2.2,4.9,4.9c0,2.7-2.2,4.9-4.9,4.9C7.4,61,5.2,58.8,5.2,56.1L5.2,56.1z M12.6,29.2H7.6
		v-1.8h4.9V29.2z M12.6,25.1H7.6v-1.8h4.9V25.1z M10.1,59.5c-1.9,0-3.5-1.6-3.5-3.5c0-1.9,1.6-3.5,3.5-3.5s3.5,1.6,3.5,3.5
		C13.5,58,12,59.5,10.1,59.5L10.1,59.5z"/>
</g>
</svg>
