<?xml version="1.0" encoding="utf-8"?>
<!-- Generator: Adobe Illustrator 23.0.3, SVG Export Plug-In . SVG Version: 6.00 Build 0)  -->
<svg version="1.1" id="Layer_1" xmlns="http://www.w3.org/2000/svg" xmlns:xlink="http://www.w3.org/1999/xlink" x="0px" y="0px"
	 viewBox="0 0 595.3 148" enable-background="new 0 0 595.3 148" xml:space="preserve">
<g>
	<g>
		<path fill="#85C040" d="M122.8,37.5c1.2-8.1,2-12.8,2.3-14l0.1-0.5c0-0.6-0.3-1.1-1-1.5c-2.1-1.3-4.6-2.3-7.6-3.1
			c-3.9-1.1-7-1.6-9.3-1.6c-1.5,0-2.3,0.3-2.4,0.9c-0.8,5.4-5.4,23.4-13.9,53.8l-6.1,21.5c-0.5-7.4-1.4-17.5-2.6-30.4
			c-1.8-19-2.8-30.1-2.8-33.1c0-0.6,0-1,0-1.3c0-0.2,0.1-0.4,0.1-0.6c0-0.6-0.4-1.1-1.1-1.4c-2-1.3-4.4-2.3-7.1-3.2
			c-3.4-1.1-6.1-1.6-8.1-1.6c-1.4,0-2.1,0.3-2.1,0.9c0,0.8,0.3,1.8,0.9,3l0.7,2L61,33.4c-5,19.3-10.5,36.7-16.6,52.1
			c-3.8,9.7-7.9,17.6-12.3,23.8c-0.3,0.4-0.8,0.6-1.4,0.7c-1,0.3-1.5,0.8-1.5,1.6c0,0.6,0.8,1.6,2.3,3.1c1.5,1.5,3.2,2.8,5.1,4.1
			c1.8,1.3,3.3,1.9,4.4,1.9c2.5,0,4.7-2.3,6.7-6.8c1.4-3.1,3.4-9,6-17.8c4.7-15.3,8.4-27.4,11.1-36.3c1.5,7.9,2.9,15.5,4.4,22.7
			c1.6,7.5,2.6,12.8,3,16c0,1.1,0.9,2.1,2.7,3.1c7.5,4.5,11.9,6.7,13.1,6.7c0.7,0,1.1-0.3,1.3-0.9c2.1-8.3,6.9-22,14.3-41.2
			c-1.1,21-1.6,36.2-1.6,45.6c0,2.8,0.9,5.7,2.7,8.7c1.8,3,4.2,5.5,7.2,7.6c3,2.1,6.3,3.1,9.9,3.1c0.7,0,1.1-0.3,1.1-0.8
			c0-0.3-0.3-0.9-0.8-2c-2.5-7.4-3.7-14.3-3.8-20.8c-0.1-6.5-0.1-10.6-0.1-12.3c0-9.5,0.5-19.1,1.4-28.7
			C120.5,55.4,121.6,45.7,122.8,37.5z"/>
		<path fill="#85C040" d="M217.2,130c-15.4-24.6-26.2-48.5-32.3-71.8c-2.5-9.5-4.1-17.2-4.8-23.1c-0.7-5.9-1.1-9.3-1.1-10.3
			c0-3-2.5-5.3-7.4-6.9c-2.9-0.9-5.2-1.4-6.8-1.4c-0.4,0-0.6,0-0.7,0.1c-5.1,22.6-9.9,40.8-14.4,54.6c-6.5-0.7-10.1-1.3-11-1.6
			c-0.8-0.3-1.5-0.4-2.1-0.4c-0.7,0-1.2,0.2-1.7,0.6c-0.6,0.7-1.1,1.8-1.6,3.2c-0.4,1.5-0.7,3.9-0.7,7.4c0,0.8,1.1,1.3,3.3,1.3h9.9
			c-3.9,10.5-8.6,19.6-14.1,27.5c-0.4,0.4-0.9,0.6-1.5,0.7c-0.9,0.2-1.4,0.7-1.4,1.6c0,0.6,0.7,1.6,2.3,3.1c1.5,1.5,3.2,2.8,5,4.1
			c1.8,1.3,3.3,1.9,4.4,1.9c3.4,0,7.1-6,11-18.1c1.6-4.9,3-9.7,4.2-14.3l2-6.6h12.1c2.3,0,3.6-0.4,4.1-1.3c0.8-1.3,1.7-2.2,2.8-2.8
			c0.4-0.2,0.7-0.4,1-0.6c0.1,0.5,0.3,1,0.5,1.5c3.1,9.8,6.1,18.6,9.2,26.4c3.1,7.8,6.4,13.5,10.1,16.8c3.8,3.4,7.4,5.8,10.8,7.3
			c3.4,1.5,6.1,2.3,8.2,2.3c0.6,0,0.9-0.3,0.9-0.9C217.3,130.3,217.3,130.2,217.2,130z M160.6,72.6c2.6-8.5,5-16.3,7.3-23.6
			c3.1,7.9,6,16.1,8.7,24.5C171.8,73.5,166.5,73.2,160.6,72.6z"/>
		<path fill="#018266" d="M278.3,16.8l-0.8,0.1c-0.8,0.2-2.8,0.5-6.2,0.9c-3.3,0.4-8.7,1-16.1,1.6c-7.4,0.6-17.6,1.3-30.7,1.9
			c-2.5,0.2-4.7,1.2-6.6,3c-1.9,1.8-3.4,3.9-4.6,6.2c-1.1,2.3-1.7,4.2-1.7,5.6c0,0.7,0.2,1,0.6,1c0.1,0,0.3,0,0.5-0.1
			c0.2,0,0.5-0.1,0.7-0.3c0.3-0.1,0.5-0.2,0.7-0.3c4.5-1.3,8.7-2.4,12.4-3.2C221.5,36.4,219,40,219,44c0,3.5,0.1,9.3,0.3,17.6
			c-1.3,0.8-1.9,1.5-1.9,2.3c0.1,2.4,0.8,4.7,2.2,6.8c0.9,25.2,2,39.9,3.3,44.3c1.5,4,4.1,8.5,7.6,13.4c1.5,2.1,2.4,3.1,2.8,3.1
			c0.6,0,0.9-0.3,0.9-0.9v-0.1c-1.5-12-2.3-21.5-2.5-28.4c-0.2-6.9-0.3-12.2-0.3-15.9c0-4.9,0.1-9.3,0.3-13.3
			c3.9-1.2,9-2.4,15.4-3.7c6.4-1.3,12.7-2.3,19-2.9c1-0.1,1.5-0.4,1.5-0.9c0-0.7-2.9-2.9-8.6-6.7c-1.8-1.2-3.1-2.1-4.1-2.8
			c-0.7-0.5-1.7-0.7-2.8-0.8c-1.1,0-2,0-2.6,0.1c-6.4,0.7-12,1.5-16.8,2.4l0.5-4.4c0.9-8.6,1.3-15.6,1.3-21.1c5-0.5,10.3-0.8,16-0.8
			c3,0,6.2,0.1,9.4,0.3c4.5,0.1,9.6,0.2,15.4,0.3c0.7,0,1.1-0.3,1.5-0.9c1.4-2.6,2.1-6,2.1-10.3C279.1,18,278.8,16.8,278.3,16.8z"/>
		<path fill="#018266" d="M319.1,50.9c0,0.1-0.1,0.2-0.1,0.3c-0.2,0.7-0.4,1.2-0.6,1.7c0.4,0,0.9,0,1.4,0.1
			C319.6,52.1,319.5,51.4,319.1,50.9z"/>
		<path fill="#018266" d="M339.5,24.4c-0.3-1.2-1.1-1.7-2.5-1.7c-2.7,0-5.7,0.6-8.9,1.9c-3.7-5.3-9.1-7.9-16.1-7.9
			c-7,0-13,1.9-18.1,5.7c-5.1,3.8-9.2,8.8-12.4,15c-3.2,6.2-5.3,12.3-6.3,18.4c-1,6.1-1.5,11.5-1.5,16.3c0,10.4,1.8,19.7,5.4,28
			c2.7,6.2,6.3,11.1,10.9,15c4.6,3.8,10.2,5.7,16.9,5.7c13.9,0,24.5-5.4,31.7-16.3c6.4-9.7,9.6-22,9.6-37
			C348.1,52.3,345.2,38,339.5,24.4z M329.7,88.8c-0.9,1-1.3,2.1-0.9,3.5c0.1,0.5,0.2,1.1,0.2,1.6c0,0.5,0,0.9,0,1.4
			c0,1.3-0.2,2.6-0.3,3.9c-0.1,0.9-1.2,1.8-2.3,2.1c-0.4,0.1-0.7,0.1-1.1,0.1c-1.3-0.4-2.3,0.4-2.5,1.7c-0.1,0.7-0.2,1.7-0.6,2
			c-1.1,0.8-0.7,1.2,0.1,1.8c0,0,0.1,0.1,0.1,0.1c0.2,0.1,0.3,0.3,0.3,0.5c0,0.9,0.1,1.9,0.1,2.8c0,0.6,0,1.1,0,1.7h-2
			c-0.1-0.4-0.2-0.9-0.4-1.3c1.3-0.9,1.3-0.9,0.9-1.7c-0.3-0.1-0.5-0.3-0.8-0.3c-0.6-0.2-1-0.4-1.3-0.7c-1.5-1.5-2.8-3.1-4.2-4.7
			c-0.1-0.1-0.3-0.3-0.5-0.3c-1.2-0.1-1.4-1-1.1-1.7c0.3-0.9-0.1-1.3-0.7-1.8c-1.2-1-1.2-1.1,0-2.3c0.8-0.7,1.3-1.5,1.1-2.6
			c0-0.3,0.3-0.6,0.4-0.9c0.4-0.7,1.2-1.3,1.2-2c0.2-1.4,0-2.8-0.1-4.2c-0.1-0.8-0.2-1.7-0.5-2.5c-0.3-0.7-0.8-1.5-1.4-2
			c-0.2-0.2-1,0-1.5,0.1c-0.9,0.2-1.7,0.5-2.6,0.7c-1.1,0.2-2.2,0.3-3.3,0.4c-0.1,0.2-0.2,0.5-0.5,1c-1-1.4-1.9-2.6-2.8-3.8
			c-0.2-0.2-0.5-0.3-0.6-0.5c-0.2-0.3-0.6-0.6-0.5-0.9c0.2-1.2-0.9-1.4-1.6-1.8c-0.2-0.1-0.9,0.5-1.3,0.7c-0.8-0.9-1.7-1.9-2.5-2.9
			c0.5-0.5,0.2-1-0.7-1.2c-0.2-0.1-0.5-0.1-0.7-0.2v-0.2c1.1-0.3,1.9-0.9,2.4-1.9c0.9-1.6,0.8-3.4,1.2-5.1c0.1-0.2-0.1-0.5-0.3-0.6
			c-1-1.1,0.1-1.8,0.5-2.6c0.2-0.3,1-0.2,1.3-0.3c1-0.3,1.8-0.4,2.5-0.9c0.7-0.4,1.1-1.2,1.7-1.9c-0.5-0.1-0.7-0.1-0.9-0.2
			c-1.2-0.1-2.2-1.5-2-2.5c0.2-1,0.6-2,0.5-3c-0.1-0.9,0.6-2.2-1.3-2.7c0.6-1.1,1.2-2.2,1.8-3.2c0.2-0.3,0.5-0.8,0.4-1
			c-0.4-1.1-0.9-2.1-1.2-2.8c1.4-1,2.6-1.9,3.9-2.7c0.7-0.5,0.6-0.8,0.2-1.4c-0.4-0.5-1-1.1-1-1.7c0.1-1.2-0.5-1.9-1.5-2.4
			c-0.9-0.4-1.1-1-0.7-1.9c0.3-0.6,0.1-1-0.4-1.4c-0.3-0.3-0.6-0.7-0.8-1.1c-0.1-0.2-0.1-0.3-0.2-0.5c-0.3-0.7-0.7-0.7-1.3-0.6
			c-0.3,0.1-1-0.3-1-0.5c0.1-0.5,0.1-0.9-0.5-1.1c-0.1-0.1,0-0.6,0-0.9h0.7c0.6,0.9,1.4,1.3,2.6,1.1c0.3-0.1,0.7,0,0.9,0.2
			c0.1,0.1,0.2,0.1,0.3,0.2c0.7,0.6,1.3,1.2,2.7,0.8c1-0.3,2.4,0.5,3.7,0.8c0,0,0-0.1,0-0.1c0.2-0.5,0.4-1,0.6-1.5
			c0.5,0.2,1.1,0.3,1.5,0.7c1.2,1.1,2.2,2.5,3.4,3.6c1.3,1.2,1.3,2.8,1.4,4.2c0,1.3-0.1,2.6,0.6,3.8c0.3,0.5,0.3,1.1,0.3,1.7
			c-0.1,0.7-0.6,1.5-0.4,2.1c0.4,1.2,1.1,2.2,1.7,3.3c0,0.1,0.2,0.1,0.3,0.1c0.5,0.1,0.9,0.4,1.2,0.7c0.4,0.5,0.5,1.2,0.7,2
			c-0.5,0-1,0-1.4-0.1c-0.5,0-1,0-1.4-0.1c-0.6-0.1-1,0.1-1.2,0.7c-0.4,1.2-0.9,2.5-1.4,3.6c-0.8,1.9-0.9,3.8-0.4,5.8
			c0.4,1.5,0.7,3,1,4.5c0.2,1.4,0.4,2.8,0.5,4.2c0.1,1.1,0.6,1.6,1.8,1.5c0.5,0,1.1,0,1.4,0.3c1,0.8,1.9,1.6,2.7,2.6
			c2.5,3,5,6,7.4,9c0.3,0.4,0.4,0.9,0.5,1.4c0.1,0.6,0.2,1.2,0.3,1.8V88.8z"/>
		<path fill="#018266" d="M419.8,24.4c-0.3-1.2-1.1-1.7-2.5-1.7c-2.7,0-5.7,0.6-8.9,1.9c-3.7-5.3-9.1-7.9-16.1-7.9
			c-7,0-13,1.9-18.1,5.7c-5.1,3.8-9.2,8.8-12.4,15c-3.2,6.2-5.3,12.3-6.3,18.4c-1,6.1-1.5,11.5-1.5,16.3c0,10.4,1.8,19.7,5.4,28
			c2.6,6.2,6.3,11.1,10.9,15c4.6,3.8,10.2,5.7,16.9,5.7c13.9,0,24.5-5.4,31.7-16.3c6.4-9.7,9.6-22,9.6-37
			C428.4,52.3,425.5,38,419.8,24.4z M387.2,112.6c-3.3,0-6.1-1.6-8.3-4.8c-2.2-3.2-3.9-7.4-5.1-12.6c-1.1-5.2-1.7-9.5-1.8-13
			c-0.1-3.4-0.1-5.5-0.1-6.2c0-12.7,1.7-24,5.1-34c4-11.6,9.3-17.4,16.1-17.4c2.1,0,3.7,1.1,4.8,3.4c1.1,2.3,1.7,4.7,1.9,7.2
			c0.2,2.5,0.3,4.6,0.3,6.4c0,4.4-0.3,7.5-0.9,9.5c-0.7,1.8-1,2.9-1,3.2c0,0.6,0.6,1,1.7,1.3s2.3,0.4,3.3,0.4c1.1,0,1.9,0,2.4,0
			c1,0,2,0,3-0.1c1.5,7.9,2.2,15.3,2.2,22.2C411,101.1,403,112.6,387.2,112.6z"/>
		<path fill="#018266" d="M499.6,37.6c-1.9-6.1-4.5-11-7.7-14.8c-3.2-3.8-7-5.7-11.5-5.7c-4.1,0-8,0.6-11.5,1.9
			c-3.5,1.2-6.6,2.7-9.2,4.3c-2.6,1.6-4.7,3.1-6.2,4.4c-1.5,1.3-2.4,2.1-2.6,2.5c-0.4-6.6-0.6-10.3-0.7-10.9v-0.5
			c0-0.2,0-0.4-0.1-0.7c-0.1-0.3-0.3-0.6-0.6-0.9c-0.3-0.3-1-0.4-1.9-0.4c-2.2,0-4.2,0.7-6.1,2.2c-1.9,1.5-3.4,3-4.5,4.5
			c-1.1,1.6-1.7,2.5-1.7,2.9c0,0.5,0.1,1,0.3,1.3c0.2,0.3,0.4,0.7,0.7,1c0.3,0.3,0.4,0.7,0.5,1.2c0.2,1.1,0.7,5.4,1.6,13.1
			c0.9,7.7,1.7,17.7,2.4,30.2c-1.7,1.4-3.3,3.3-4.9,5.8c-1.6,2.5-2.4,5.3-2.4,8.2c0,6.3,1,11.7,3,16c1.2,2.6,3,5,5.3,7
			c0.2,4.2,1.3,7.1,3.2,8.5c1.5,1.2,3.2,2.1,5.1,3c1.9,0.8,3.2,1.2,3.8,1.2c0.4,0,0.6-0.2,0.6-0.6c0-0.4,0-0.7,0-0.9
			c0-0.8-0.2-2.2-0.6-4.2l-0.1-0.7c7.4,2.5,15,3.7,22.9,3.7c5,0,9.3-1.9,12.9-5.6c3.6-3.8,6.5-8.7,8.7-14.8
			c2.2-6.1,3.6-12.1,4.2-17.9c0.7-5.8,1-10.8,1-15.1C503.6,56,502.3,46.3,499.6,37.6z M481.4,103.5c-2,2.4-4.5,3.8-7.4,4.4
			c-2.9,0.6-5.6,0.9-8,0.9c-1.2,0-2.4,0-3.6-0.1c-3.6-0.4-6.5-1.1-8.8-2.1c-0.2-20.7-0.7-39-1.5-54.7c0.9,0.3,2,0.5,3.2,0.5
			c1,0,1.6-0.3,1.8-0.9c0.1-0.6,0.2-1,0.2-1.4c0-0.6-0.1-1.2-0.3-1.9c-0.1-0.3-0.1-0.6-0.1-0.9c0-1.1,0.3-2.5,0.9-4.3
			c0.7-2.2,1.8-4.5,3.4-6.9c1.5-2.4,3.4-4.5,5.5-6.2c2.1-1.7,4.4-2.6,6.8-2.6c2.8,0,5.4,2.1,7.8,6.2c2.4,4.2,4.4,9.4,5.9,15.8
			c1.6,6.4,2.4,11.6,2.6,15.8c0.2,4.2,0.3,6.9,0.3,8.2C490.1,87.4,487.2,97.5,481.4,103.5z"/>
		<path fill="#018266" d="M564.5,23c0.8-0.9,1.3-1.5,1.4-1.7c0.1-0.2,0.1-0.4,0.1-0.5c0-0.8-1.9-1.8-5.7-3c-2.6-0.8-5.1-1.2-7.6-1.2
			c-0.9,0-1.7,1-2.3,3c-3.8-2.1-8.9-3.1-15.1-3.1c-2.6,0-5.4,0.6-8.4,1.9c-3,1.2-5.9,3.1-8.6,5.6c-2.7,2.5-4.9,5.6-6.7,9.4
			c-1.7,3.7-2.6,8.1-2.6,13.2c0,3.9,0.9,7.5,2.6,10.7c1.7,3.2,4,6,6.8,8.6c2.8,2.6,5.9,5,9.2,7.2c3.4,2.2,6.8,4.2,10.2,6.2
			c3.4,2,6.6,3.9,9.5,5.8c2.9,1.9,5.3,3.9,7.1,6c1.8,2.1,2.7,4.3,2.7,6.8c0,4.1-1.6,7-4.8,8.6c-3.2,1.6-7.5,2.5-13,2.5
			c-5.7,0-11-2.7-16.1-8c-3.4-3.5-6.8-8.2-10.3-13.9c-1-1.6-1.8-2.9-2.5-3.9c-0.7-1-1.2-1.5-1.6-1.5c-0.5,0-0.8,0.1-1.2,0.5
			c-0.3,0.3-0.5,0.7-0.5,1.2v0.3c0.2,1.3,0.4,3,0.6,4.9c0.4,3.9,1.1,8,1.9,12.1c0.8,4.1,2.1,7,3.8,8.7c1.2,1,2.4,2,3.4,3
			c1.5,1.5,3.2,2.9,4.9,4.1c1.8,1.3,4,2.3,6.8,3.1c2.8,0.8,6.4,1.2,11,1.2c9.5,0,16.4-4,20.9-12.1c3.6-6.5,5.4-14.7,5.4-24.5
			c0-2.8-1-5.4-2.9-7.6c-1.9-2.2-4.4-4.3-7.4-6.3c-3-1.9-6.2-3.9-9.7-5.7c-3.8-2.1-7.4-4.3-10.9-6.6c-3.5-2.3-6.4-4.9-8.6-7.7
			c-2.3-2.9-3.4-6.2-3.4-10c0-4.1,1.2-7.7,3.6-10.8c2.4-3.1,5.3-4.6,8.6-4.6c7.6,0,12.6,2.1,15,6.4l0.1,1.6c0.2,3.2,0.4,5.4,0.5,6.8
			c0.1,2.1,0.7,3.6,1.7,4.6c0.7,0.6,1.7,1.5,2.9,2.6c1.5,1.5,3,2.9,4.6,4.2c1.6,1.4,2.9,2.1,3.9,2.1c0.5,0,0.8-0.2,0.8-0.5
			c0-0.4,0-0.6,0-0.7c0-0.7-0.1-1.4-0.2-2c-0.7-5.9-1-11.1-1-15.3c0-1,0-2,0-2.9C563.6,26.7,564,23.8,564.5,23z"/>
	</g>
	<g>
		<path fill="#018266" d="M319.1,50.9c0,0.1-0.1,0.2-0.1,0.3c-0.2,0.7-0.4,1.2-0.6,1.7c0.4,0,0.9,0,1.4,0.1
			C319.6,52.1,319.5,51.4,319.1,50.9z"/>
	</g>
	<g>
		<g>
			<g>
				<path fill="#FFFFFF" d="M319.8,52.9c-0.5,0-1,0-1.4-0.1c0.1-0.5,0.3-1,0.6-1.7c0-0.1,0.1-0.2,0.1-0.3
					C319.5,51.4,319.6,52.1,319.8,52.9z"/>
			</g>
		</g>
	</g>
</g>
</svg>
