<?xml version="1.0" encoding="utf-8"?>
<!-- Generator: Adobe Illustrator 23.0.3, SVG Export Plug-In . SVG Version: 6.00 Build 0)  -->
<svg version="1.1" id="Layer_1" xmlns="http://www.w3.org/2000/svg" xmlns:xlink="http://www.w3.org/1999/xlink" x="0px" y="0px"
	 viewBox="0 0 34.6 69.8" enable-background="new 0 0 34.6 69.8" xml:space="preserve">
<g>
	<g>
		<g>
			<path fill="#85C040" d="M25.7,66.4h-2.4l-0.5-1.7l0.3-0.2c0.2-0.2,0.5-0.4,0.6-0.4c0,0,0,0,0-0.1c-0.2-0.1-0.3-0.1-0.5-0.2
				c-0.4-0.2-0.8-0.3-1.1-0.6c-0.7-0.8-1.4-1.6-2.1-2.4c-0.3-0.4-0.7-0.8-1-1.1c-0.7-0.1-1-0.4-1.2-0.6c-0.2-0.4-0.3-0.9-0.1-1.3
				c0.1-0.3,0.1-0.4-0.4-0.8c-0.5-0.4-0.9-0.7-0.9-1.2c0-0.5,0.4-0.8,0.8-1.3c0.6-0.5,0.8-1,0.7-1.5c-0.1-0.4,0.2-0.7,0.3-0.9
				l0.1-0.1c0.1-0.2,0.3-0.4,0.4-0.5c0.2-0.3,0.4-0.5,0.5-0.7c0.1-0.9,0-1.9-0.1-2.8l0-0.2c-0.1-0.7-0.2-1.2-0.4-1.7
				c-0.2-0.5-0.5-1-0.8-1.3c-0.1,0-0.4,0.1-0.6,0.1l-0.1,0c-0.3,0.1-0.6,0.1-0.8,0.2c-0.4,0.1-0.8,0.2-1.2,0.3
				c-0.6,0.1-1.1,0.2-1.7,0.2c-0.2,0-0.3,0-0.5,0l-0.6,1.2l-1.1-1.5c-0.5-0.7-1-1.3-1.5-2c0,0-0.1-0.1-0.1-0.1
				c-0.1-0.1-0.2-0.2-0.3-0.3l-0.1-0.1c-0.2-0.3-0.5-0.6-0.4-1c0-0.3,0-0.4-0.6-0.6c-0.1,0-0.1-0.1-0.2-0.1
				c-0.1,0.1-0.2,0.1-0.3,0.2c-0.1,0.1-0.2,0.2-0.3,0.2L7,41.6l-2.4-2.8l0.3-0.3c0,0,0,0,0,0c0,0-0.1-0.1-0.3-0.1
				c-0.1,0-0.3-0.1-0.4-0.1l-0.5-0.2v-0.9l0.4-0.1c0.7-0.2,1.2-0.5,1.5-1.2c0.4-0.7,0.5-1.5,0.6-2.3c0.1-0.4,0.1-0.8,0.2-1.2
				c0,0,0-0.1-0.1-0.1c-0.9-0.9-0.2-1.8,0.1-2.2c0.1-0.1,0.2-0.2,0.2-0.3c0.2-0.4,0.7-0.4,1.2-0.4c0.1,0,0.1,0,0.2,0
				c0.2-0.1,0.4-0.1,0.6-0.2c0.4-0.1,0.8-0.2,1-0.4c0.2-0.2,0.4-0.4,0.7-0.7c-0.5-0.1-1-0.4-1.4-0.9c-0.4-0.5-0.5-1.1-0.4-1.6
				c0-0.2,0.1-0.4,0.1-0.6c0.1-0.5,0.3-1,0.2-1.4c0-0.2,0-0.4,0-0.7c0.1-0.6,0.1-0.8-0.6-0.9l-0.6-0.2l0.7-1.2
				c0.3-0.6,0.7-1.2,1-1.8l0.1-0.2c0-0.1,0.1-0.2,0.1-0.3c-0.2-0.5-0.5-1.1-0.7-1.5l-0.4-0.8l0.3-0.2c0.3-0.2,0.6-0.4,0.9-0.6
				c0.7-0.5,1.3-1,2-1.4c0.1-0.1,0.1-0.1,0.2-0.1c0,0-0.1-0.1-0.2-0.2l-0.2-0.2c-0.3-0.4-0.7-0.9-0.7-1.4c0-0.6-0.2-1-0.9-1.4
				c-0.9-0.4-1.2-1.2-0.8-2C9.3,8.1,9.3,8.1,9,7.8C8.6,7.5,8.3,6.9,8.1,6.5C8.1,6.3,8,6.3,8,6.3c0,0-0.1,0-0.3,0
				C7.3,6.4,6.7,6.1,6.6,6C6.3,5.8,6.3,5.6,6.3,5.4c0-0.1,0-0.2,0-0.3c0,0,0,0-0.1,0C5.8,5,5.9,4.5,5.9,4.2c0-0.1,0-0.2,0-0.2l0-0.5
				h1.3l0.1,0.2c0.4,0.6,0.8,0.7,1.4,0.6c0.4-0.1,0.8,0,1.1,0.2l0.3,0.2c0.5,0.4,0.8,0.7,1.5,0.4c0.7-0.2,1.4,0.1,2.2,0.3
				c0.2,0.1,0.3,0.1,0.5,0.2l0.5-1.3l0.5,0.2c0.1,0,0.2,0.1,0.3,0.1c0.3,0.1,0.6,0.2,0.9,0.5c0.4,0.4,0.8,0.8,1.1,1.2
				c0.5,0.5,0.9,1,1.4,1.4c1.1,1,1.2,2.4,1.2,3.5c0,0.2,0,0.4,0,0.6c0,0.8,0,1.4,0.4,2.1c0.3,0.5,0.3,1.2,0.3,1.6
				c0,0.3-0.1,0.6-0.2,0.8c-0.1,0.2-0.2,0.5-0.1,0.6c0.2,0.6,0.5,1.1,0.9,1.7c0.1,0.2,0.2,0.3,0.3,0.5l0,0c1.3,0.3,1.5,1.3,1.8,2.2
				l0.2,0.8l-1.4-0.1c-0.5,0-1,0-1.4-0.1c-0.3,0-0.3,0-0.4,0.2c-0.3,0.9-0.7,1.9-1.1,2.8c-0.6,1.3-0.6,2.6-0.3,4
				c0.3,1.1,0.5,2.2,0.8,3.4c0.2,1.1,0.3,2.2,0.4,3.2c0,0.3,0.1,0.5,0.2,0.6c0.1,0.1,0.4,0.1,0.6,0.1c0.4,0,1,0,1.4,0.3
				c0.9,0.7,1.5,1.4,2.1,2c1.6,1.9,3.4,4,5.6,6.8c0.3,0.3,0.4,0.8,0.5,1.2c0.1,0.4,0.1,0.7,0.2,1.1l0.1,0.5v0.7l-0.1,0.1
				c-0.6,0.7-0.8,1.3-0.5,2.2c0.2,0.7,0.2,1.5,0.1,2.3l0,0.1c0,0.6-0.1,1.2-0.1,1.8c0,0.4-0.1,0.8-0.1,1.1c0,0.5-0.4,1.1-1.1,1.6
				c-0.7,0.5-1.5,0.7-2.1,0.5c-0.3-0.1-0.6-0.1-0.8,0.1c-0.2,0.1-0.4,0.4-0.4,0.7c-0.1,0.7-0.2,1.5-0.7,1.9
				c-0.3,0.2-0.3,0.3-0.3,0.3c0,0,0.1,0.1,0.4,0.3c0.2,0.2,0.5,0.4,0.5,0.8c0,0.9,0,1.7,0.1,2.6L25.7,66.4z M24.1,65.4h0.6l0-0.3
				c0-0.2,0-0.4,0-0.6c-0.1,0.2-0.3,0.4-0.7,0.7L24.1,65.4z M17.9,43.5c0.2,0,0.5,0.1,0.6,0.2c0.5,0.4,0.9,1,1.1,1.7
				c0.2,0.6,0.4,1.2,0.4,2l0,0.2c0.1,1,0.2,2,0.1,3c-0.1,0.5-0.4,0.9-0.7,1.3c-0.1,0.1-0.2,0.3-0.3,0.4l-0.1,0.2
				c0,0.1-0.1,0.2-0.1,0.2c0.2,1-0.4,1.8-1,2.3c-0.1,0.1-0.5,0.4-0.5,0.5c0,0,0.4,0.3,0.5,0.4c0.4,0.4,1,0.9,0.7,1.9
				c-0.1,0.2-0.1,0.3,0,0.4c0.1,0.1,0.3,0.1,0.4,0.2c0.3,0,0.6,0.2,0.7,0.4c0.3,0.4,0.7,0.8,1,1.2c0.7,0.8,1.4,1.6,2.1,2.3
				c0.1,0.2,0.4,0.3,0.8,0.4c0.2,0.1,0.4,0.2,0.7,0.3l0.2,0.1l0.1,0.2c0.1,0.1,0.1,0.2,0.1,0.3c0-0.4,0-0.7,0-1.1
				c0,0-0.1-0.1-0.1-0.1c-0.3-0.2-0.7-0.6-0.7-1.1c0-0.5,0.4-0.8,0.7-1c0.2-0.1,0.2-0.8,0.3-1.1c0.1-0.7,0.4-1.2,0.8-1.5
				c0.5-0.3,1.1-0.4,1.7-0.2c0.3,0.1,0.8-0.1,1.2-0.4c0.4-0.3,0.6-0.6,0.7-0.8c0-0.4,0.1-0.8,0.1-1.2c0.1-0.6,0.1-1.1,0.1-1.7l0-0.1
				c0-0.7,0.1-1.4-0.1-2c-0.3-1.1-0.1-2,0.6-2.9l0-0.7c0-0.3-0.1-0.6-0.1-0.9c-0.1-0.4-0.2-0.7-0.3-0.8c-2.2-2.7-3.9-4.8-5.6-6.8
				c-0.5-0.6-1.1-1.2-1.9-1.9c-0.1-0.1-0.4-0.1-0.7-0.1c-0.6,0.1-1,0-1.3-0.3c-0.3-0.3-0.5-0.7-0.6-1.3c-0.1-1-0.2-2.1-0.4-3.1
				c-0.2-1.2-0.5-2.3-0.7-3.3c-0.4-1.6-0.3-3.1,0.3-4.7c0.4-0.9,0.7-1.8,1-2.7c0.2-0.7,0.7-1,1.4-0.9c0.4,0,0.9,0.1,1.4,0.1l0,0
				c-0.2-0.6-0.4-0.9-0.9-1c-0.2,0-0.4-0.1-0.6-0.3c-0.1-0.2-0.3-0.4-0.4-0.6c-0.4-0.6-0.8-1.2-1-1.9c-0.1-0.4,0-0.9,0.2-1.3
				c0.1-0.2,0.1-0.4,0.2-0.6c0-0.4,0-0.8-0.1-1c-0.5-0.9-0.5-1.7-0.5-2.6c0-0.2,0-0.3,0-0.5c0-1-0.1-2-0.9-2.8c-0.5-0.5-1-1-1.4-1.5
				c-0.4-0.4-0.7-0.8-1.1-1.2c-0.1-0.1-0.3-0.2-0.4-0.2l-0.4,1l-0.6,0.2l-0.1-0.2c-0.3-0.1-0.5-0.2-0.8-0.2C12.9,6.2,12.3,6,12,6.1
				C10.7,6.5,10.1,6,9.5,5.5L9.3,5.3c0,0-0.2-0.1-0.3,0C8.8,5.3,8.5,5.3,8.2,5.3C8.5,5.4,8.8,5.6,9,6.1c0.1,0.3,0.3,0.8,0.6,1
				c0.4,0.3,0.8,0.8,0.5,1.6C10,9,10,9.2,10.4,9.5c1,0.5,1.5,1.3,1.4,2.3c0,0.1,0.3,0.5,0.5,0.7l0.2,0.2c0.2,0.3,0.4,0.6,0.4,1
				c-0.1,0.4-0.4,0.6-0.6,0.8c-0.7,0.4-1.3,0.9-2,1.4C10,16,9.9,16.1,9.7,16.2l0,0.1c0.2,0.5,0.5,1.1,0.7,1.7c0.1,0.4-0.1,0.8-0.2,1
				l-0.1,0.1c-0.3,0.6-0.6,1.2-1,1.8l-0.1,0.1c0.9,0.5,0.8,1.3,0.8,1.8c0,0.2,0,0.3,0,0.4c0.1,0.6-0.1,1.2-0.2,1.8
				c0,0.2-0.1,0.4-0.1,0.6c0,0.2,0.1,0.5,0.3,0.8c0.2,0.3,0.5,0.5,0.8,0.5c0.1,0,0.3,0,0.4,0.1l1.2,0.2L11.6,28
				c-0.1,0.2-0.3,0.3-0.4,0.5c-0.3,0.4-0.6,0.8-1,1c-0.4,0.3-0.8,0.4-1.3,0.5c-0.2,0.1-0.4,0.1-0.6,0.2c-0.1,0-0.3,0-0.4,0
				c-0.1,0-0.3,0-0.4,0c-0.1,0.1-0.2,0.2-0.3,0.4c-0.4,0.5-0.4,0.6-0.2,0.9c0.1,0.1,0.4,0.5,0.3,0.9c-0.1,0.4-0.2,0.8-0.2,1.2
				c-0.1,0.9-0.3,1.8-0.8,2.7c-0.3,0.5-0.6,0.9-1.1,1.2c0.3,0.1,0.4,0.3,0.5,0.6c0,0.1,0.1,0.4,0,0.6l1.4,1.6
				c0.4-0.3,0.8-0.5,1.1-0.3c0.1,0.1,0.2,0.1,0.3,0.1c0.5,0.2,1.3,0.6,1.2,1.6c0,0.1,0.1,0.2,0.2,0.2l0.1,0.1c0,0,0.1,0.1,0.1,0.1
				c0.1,0.1,0.2,0.2,0.3,0.3c0.5,0.6,1,1.3,1.5,2l0.2,0.2l0.1-0.2l0.3,0c0.3,0,0.5-0.1,0.8-0.1c0.6-0.1,1.1-0.1,1.7-0.2
				c0.4-0.1,0.7-0.2,1-0.3c0.3-0.1,0.6-0.2,0.9-0.2l0.1,0C17.4,43.6,17.7,43.5,17.9,43.5z M24.6,62.5C24.6,62.5,24.6,62.5,24.6,62.5
				C24.6,62.5,24.6,62.5,24.6,62.5z M9.8,41.9C9.8,41.9,9.8,41.9,9.8,41.9C9.8,41.9,9.8,41.9,9.8,41.9z M4.9,38.4L4.9,38.4L4.9,38.4
				z M6.4,32.2C6.4,32.2,6.4,32.2,6.4,32.2C6.4,32.2,6.4,32.2,6.4,32.2z M7.3,5.5C7.3,5.5,7.3,5.5,7.3,5.5C7.3,5.5,7.3,5.5,7.3,5.5z
				 M7.3,5.3c0.1,0,0.1,0.1,0.2,0.1c0.1,0,0.3-0.1,0.5-0.1C7.8,5.2,7.5,5.2,7.3,5C7.3,5.1,7.3,5.2,7.3,5.3z"/>
		</g>
	</g>
</g>
</svg>
