<?xml version="1.0" encoding="utf-8"?>
<!-- Generator: Adobe Illustrator 23.0.3, SVG Export Plug-In . SVG Version: 6.00 Build 0)  -->
<svg version="1.1" id="Layer_1" xmlns="http://www.w3.org/2000/svg" xmlns:xlink="http://www.w3.org/1999/xlink" x="0px" y="0px"
	 viewBox="0 0 78.6 78.6" enable-background="new 0 0 78.6 78.6" xml:space="preserve">
<g>
	<path fill-rule="evenodd" clip-rule="evenodd" fill="#FFF100" d="M15.5,37.7V47h2.6v-9.3H15.5z M32.2,17.5h14.5v-1.8H32.2V17.5z
		 M55.8,39.8H23.1v1.8h32.7V39.8z M55.8,34.9H23.1v1.8h32.7V34.9z M55.8,30H23.1v1.8h32.7V30z M23.1,26.9h32.7v-1.8H23.1V26.9z
		 M60.7,37.7V47h2.5v-9.3H60.7z"/>
	<path fill-rule="evenodd" clip-rule="evenodd" fill="#FFF100" d="M14,50.7v16.8c0,1.1,0.9,1.9,1.9,1.9h50.8c1.1,0,1.9-0.9,1.9-1.9
		V50.7C49.5,50.7,33.2,50.7,14,50.7L14,50.7z"/>
	<path fill-rule="evenodd" clip-rule="evenodd" fill="#018266" d="M11.8,48.3v16.8c0,1.1,0.9,1.9,1.9,1.9h50.8
		c1.1,0,1.9-0.9,1.9-1.9V48.3H50.5c-0.4,2.5-2.6,4.4-5.2,4.4H32.6c-2.6,0-4.7-1.9-5.2-4.4H11.8z M62.8,46.5v-9.3h-2.5v9.3H62.8z
		 M17.8,46.5V9.2h42.6V18v17.5h3.4c0.5,0,0.9,0.4,0.9,0.9v10.2h2.6c0.5,0,0.9,0.4,0.9,0.9v17.7c0,2-1.7,3.7-3.7,3.7H13.7
		c-2,0-3.7-1.7-3.7-3.7V47.4c0-0.5,0.4-0.9,0.9-0.9h2.5V36.3c0-0.5,0.4-0.9,0.9-0.9h3.4v1.8h-2.5v9.3H17.8z M48.8,59.9H29.1v-1.8
		h19.7V59.9z M55.4,41.1H22.7v-1.8h32.7V41.1z M55.4,36.2H22.7v-1.8h32.7V36.2z M55.4,31.3H22.7v-1.8h32.7V31.3z M55.4,26.4H22.7
		v-1.8h32.7V26.4z M46.3,17H31.8v-1.8h14.5V17z"/>
</g>
</svg>
